<?xml version="1.0" standalone="no"?>
<!DOCTYPE svg PUBLIC "-//W3C//DTD SVG 20010904//EN"
 "http://www.w3.org/TR/2001/REC-SVG-20010904/DTD/svg10.dtd">
<svg version="1.0" xmlns="http://www.w3.org/2000/svg"
 width="260.000000pt" height="260.000000pt" viewBox="0 0 260.000000 260.000000"
 preserveAspectRatio="xMidYMid meet">
<metadata>
Created by potrace 1.11, written by Peter Selinger 2001-2013
</metadata>
<g transform="translate(0.000000,260.000000) scale(0.100000,-0.100000)"
fill="#000000" stroke="none">
<path d="M1475 2511 c-6 -5 -69 -47 -142 -93 -514 -325 -542 -345 -833 -605
l-45 -41 0 -508 -1 -508 126 -205 125 -205 220 -138 c120 -76 225 -136 232
-133 81 31 749 518 838 610 92 96 133 143 147 165 13 22 15 90 13 515 l-2 490
-104 205 -104 205 -210 127 c-201 122 -239 139 -260 119z m260 -191 l160 -95
98 -197 c68 -134 96 -201 90 -211 -4 -8 -36 -45 -70 -82 -45 -47 -67 -65 -80
-61 -10 3 -31 8 -48 10 -16 3 -88 17 -160 31 -71 14 -143 28 -160 31 -24 4
-290 173 -381 244 l-22 16 44 60 c25 32 50 66 57 74 6 8 63 84 125 167 l113
152 37 -22 c20 -12 109 -65 197 -117z m-468 -120 l-142 -190 -195 -116 -195
-117 -70 -2 c-38 -1 -78 1 -88 3 -21 5 -38 -11 152 152 73 63 169 138 212 165
43 28 135 86 204 130 201 128 259 165 262 165 2 0 -61 -85 -140 -190z m57
-344 l181 -125 0 -675 c0 -587 -2 -677 -15 -690 -8 -8 -89 -62 -179 -120 -150
-97 -166 -105 -185 -93 -12 8 -101 64 -198 126 l-177 112 0 680 c1 619 3 681
18 690 9 5 95 57 191 114 96 58 176 105 178 105 2 0 86 -56 186 -124z m770
-534 l1 -437 -57 -62 c-32 -34 -59 -59 -61 -55 -2 4 -3 203 -3 442 l1 436 55
62 c29 34 56 59 59 57 2 -3 5 -202 5 -443z m-1374 -226 c0 -358 -4 -646 -8
-641 -5 6 -51 79 -102 164 l-94 155 -1 475 c0 262 1 481 2 486 2 6 44 10 103
10 l100 0 0 -649z m1025 584 c88 -17 169 -35 180 -39 20 -8 20 -17 19 -465 -1
-380 -3 -459 -15 -470 -47 -43 -382 -297 -386 -292 -4 4 -8 1186 -4 1285 1 19
5 22 24 18 12 -3 94 -20 182 -37z"/>
</g>
</svg>
