<?xml version="1.0" encoding="UTF-8"?>
<svg viewBox="0 0 1440 139" version="1.1" xmlns="http://www.w3.org/2000/svg" xmlns:xlink="http://www.w3.org/1999/xlink">
    <g id="Designs" stroke="none" stroke-width="1" fill="none" fill-rule="evenodd">
        <g id="Desktop---Homepage-----final" transform="translate(0.000000, -7251.000000)" fill="#075F93">
            <g id="background" transform="translate(721.500000, 7263.500000) rotate(-270.000000) translate(-721.500000, -7263.500000) translate(531.000000, 6542.000000)">
                <g id="color-swatches" transform="translate(95.500000, -28.000000)">
                    <path d="M101.553079,30.4910303 L191.070344,30.4910303 L220.983846,467.619877 L220.983846,1471.38879 L101.553079,1471.67622 C89.7613384,1275.17462 83.584419,1137.62202 83.0223204,1059.01842 C81.9885986,914.463242 117.193105,804.585735 119.541548,691.685084 C123.09741,520.73812 94.7149542,364.479137 94.7149542,241.602141 C94.7149542,180.213679 83.0676782,109.019016 83.3029539,68.2591445 C83.3831058,54.3733934 83.6847961,34.1848304 83.9190963,32.0072212 C84.1533965,29.829612 85.6847743,32.1734657 86.1533965,31.829612 C88.2010808,30.3271142 91.301057,31.7671786 93.1533965,30.829612 C95.086757,29.8510365 97.886651,29.7381759 101.553079,30.4910303 Z" id="Rectangle-Copy-2"></path>
                </g>
            </g>
        </g>
    </g>
</svg>