<?xml version="1.0" encoding="UTF-8"?>
<svg width="694px" height="194px" viewBox="0 0 694 194" version="1.1" xmlns="http://www.w3.org/2000/svg" xmlns:xlink="http://www.w3.org/1999/xlink">
    <!-- Generator: Sketch 60 (88103) - https://sketch.com -->
    <title>fools-gold-1</title>
    <desc>Created with Sketch.</desc>
    <g id="Designs" stroke="none" stroke-width="1" fill="none" fill-rule="evenodd">
        <g id="Desktop---Homepage-----final" transform="translate(-371.000000, -359.000000)" fill="#191919" fill-rule="nonzero">
            <g id="fools-gold-1" transform="translate(371.000000, 356.000000)">
                <path d="M43.9034239,49.9319231 L77.6548913,49.9319231 L59.851087,74.3296154 L43.9034239,74.3296154 L43.9034239,120.473077 C44.3331111,128.023408 42.6403538,135.54323 39.0168478,142.180962 C35.3547382,147.117093 29.3763685,149.776037 23.258587,149.189615 L10.6822826,134.035769 C13.3352637,133.408942 15.6745547,131.849242 17.2734783,129.641154 C18.9187946,126.822082 19.6962082,123.580305 19.5084239,120.321538 L19.5084239,74.3296154 L0,74.3296154 L18.1826087,49.9319231 L19.5084239,49.9319231 L19.5084239,36.8238462 C19.5084239,35.5736538 21.1372826,33.49 24.395,30.6107692 C27.6527174,27.7315385 31.5165217,24.625 36.0242935,21.2532692 C40.5320652,17.8815385 45.039837,14.5855769 49.6233696,11.3653846 L60.6086957,3.78715546 C63.5809892,3.75767883 66.5338136,4.27127019 69.3211957,5.30384615 C72.0107065,6.28884615 74.5865761,7.3875 77.1245652,8.56192308 C79.6625543,9.73634615 82.1247826,10.8728846 84.7006522,11.8578846 C87.335316,12.8715099 90.135731,13.3854043 92.958587,13.3732692 C96.1598475,13.2666674 99.3160277,12.5866023 102.277174,11.3653846 C106.585281,9.46705294 110.572383,6.91093623 114.09587,3.78715546 C113.689743,9.15856771 112.383597,14.4221463 110.232065,19.3590385 C108.37562,23.3839467 105.809263,27.0414093 102.655978,30.1561538 C99.8834433,32.8607618 96.5819323,34.9631278 92.958587,36.3313462 C89.6732338,37.6118903 86.1810842,38.2795808 82.6551087,38.3013462 C78.1680883,38.406318 73.6963608,37.7399699 69.434837,36.3313462 C66.0075529,35.1360479 62.6979133,33.6268886 59.5480435,31.8230769 C56.6186232,30.1561538 53.9291123,28.565 51.4795109,27.0496154 C49.1783812,25.5947026 46.5972595,24.6395821 43.9034239,24.2461538 L43.9034239,49.9319231 Z" id="Path"></path>
                <path d="M139.210598,119.753269 C139.210598,121.230769 137.809022,123.238654 135.08163,125.739038 C131.798903,128.642077 128.318119,131.313083 124.664511,133.732692 C120.459783,136.536154 115.87625,139.301731 110.876033,141.991538 C105.875815,144.681346 101.10288,146.954423 96.6329891,148.810769 C93.2547236,148.850986 89.8916542,148.352224 86.6704348,147.333269 C83.7135117,146.299104 81.0943046,144.478555 79.0943478,142.067308 C76.695621,139.000954 75.0014009,135.443993 74.1320109,131.649038 C72.8061577,126.092581 72.2076895,120.387403 72.3516304,114.676731 L72.3516304,79.0273077 C72.3516304,77.6634615 73.7153261,75.7313462 76.4805978,73.3067308 C79.7636934,70.461758 83.2448388,67.8537758 86.8977174,65.5025 C91.0645652,62.7748077 95.6480978,60.0092308 100.686196,57.2815385 C105.724293,54.5538462 110.421467,52.0913462 114.929239,49.9319231 C118.297128,49.9040937 121.647753,50.415696 124.853913,51.4473077 C127.901112,52.4446801 130.588224,54.3153272 132.581522,56.8269231 C134.973136,59.9026598 136.678135,63.4551319 137.581739,67.2451923 C138.891566,72.7786792 139.48986,78.4567347 139.36212,84.1417308 L139.210598,119.753269 Z M96.6329891,114.676731 C96.5792036,116.949653 97.0866258,119.200775 98.1103261,121.230769 C99.1430272,123.111493 100.563303,124.751447 102.277174,126.042115 C104.040942,127.38392 105.99414,128.456382 108.07288,129.224423 C110.296426,130.034947 112.592307,130.631181 114.929239,131.005 L114.929239,84.1038462 C114.985628,81.8141525 114.464531,79.5471291 113.414022,77.5119231 C112.421064,75.6594953 111.053655,74.0339055 109.398696,72.7384615 C107.63444,71.3761935 105.665499,70.3021071 103.565109,69.5561538 C101.359885,68.7286622 99.0748548,68.1319496 96.7466304,67.7755769 L96.6329891,114.676731 Z" id="Shape"></path>
                <path d="M214.630543,119.753269 C214.630543,121.230769 213.228967,123.238654 210.501576,125.739038 C207.211434,128.633066 203.731281,131.303587 200.084457,133.732692 C195.879728,136.536154 191.296196,139.301731 186.295978,141.991538 C181.295761,144.681346 176.522826,146.954423 172.052935,148.810769 C168.674669,148.850986 165.3116,148.352224 162.09038,147.333269 C159.133457,146.299104 156.51425,144.478555 154.514293,142.067308 C152.115567,139.000954 150.421347,135.443993 149.551957,131.649038 C148.213358,126.094251 147.602154,120.389051 147.733696,114.676731 L147.733696,79.0273077 C147.733696,77.6634615 149.097391,75.7313462 151.862663,73.3067308 C155.13919,70.4701342 158.60714,67.8625561 162.241902,65.5025 C166.44663,62.7748077 171.030163,60.0092308 176.068261,57.2815385 C181.106359,54.5538462 185.803533,52.0913462 190.311304,49.9319231 C193.679193,49.9040937 197.029818,50.415696 200.235978,51.4473077 C203.223344,52.4603942 205.854272,54.3154031 207.812065,56.7890385 C210.20368,59.8647752 211.908678,63.4172472 212.812283,67.2073077 C214.122109,72.7407946 214.720403,78.4188501 214.592663,84.1038462 L214.630543,119.753269 Z M172.052935,114.676731 C171.999149,116.949653 172.506571,119.200775 173.530272,121.230769 C174.529917,123.10047 175.91074,124.739571 177.583478,126.042115 C179.347246,127.38392 181.300444,128.456382 183.379185,129.224423 C185.60273,130.034947 187.898612,130.631181 190.235543,131.005 L190.235543,84.1038462 C190.291933,81.8141525 189.770835,79.5471291 188.720326,77.5119231 C187.727368,75.6594953 186.35996,74.0339055 184.705,72.7384615 C182.940744,71.3761935 180.971803,70.3021071 178.871413,69.5561538 C176.664897,68.7327429 174.380292,68.1361412 172.052935,67.7755769 L172.052935,114.676731 Z" id="Shape"></path>
                <path d="M258.041522,126.875577 C261.829565,129.262308 267.587391,128.428846 274.822554,124.450962 C271.104655,131.46582 266.076877,137.703011 260.011304,142.825 C255.009884,146.772849 248.805863,148.885658 242.434783,148.810769 C239.302298,149.023429 236.232427,147.861728 234.025326,145.628462 C231.950686,143.295389 230.457883,140.504188 229.669076,137.483269 C228.669421,133.774448 228.122488,129.958212 228.040217,126.117885 C228.040217,121.912692 227.850815,117.745385 227.850815,113.615962 L227.850815,41.2942308 C227.448579,31.8838345 228.79726,22.4805617 231.828261,13.5626923 C234.180228,7.32667203 240.33008,3.35957973 246.980435,3.78846154 L265.920652,24.625 C262.198328,24.4183954 258.546446,25.6994208 255.768696,28.1861538 C253.268587,30.5728846 251.980652,34.9296154 251.980652,41.2942308 L251.980652,113.653846 C251.38645,118.845195 253.720868,123.937706 258.041522,126.875577 L258.041522,126.875577 Z" id="Path"></path>
                <path d="M328.688533,84.2932692 C331.444505,84.414343 334.093571,85.3946056 336.26462,87.0967308 C339.075287,89.0736779 341.523054,91.5217145 343.499783,94.3326923 C345.663488,97.2978178 347.350581,100.582899 348.5,104.069038 C349.698635,107.409347 349.934893,111.019239 349.181848,114.487308 C348.375124,116.849061 347.085004,119.016702 345.393804,120.851923 C343.208865,123.548721 340.828607,126.08119 338.272283,128.428846 C335.35149,131.128593 332.278118,133.658397 329.067337,136.005769 C325.771739,138.468269 322.514022,140.627692 319.332065,142.559808 C316.541662,144.261989 313.629606,145.756165 310.619565,147.030192 C308.635417,148.035037 306.473125,148.64003 304.255652,148.810769 C301.926492,148.911642 299.60896,148.429855 297.512935,147.409038 C295.749353,146.482662 294.118478,145.323084 292.664239,143.961538 C291.317468,142.785714 290.05189,141.519996 288.876196,140.173077 C287.83463,138.943066 286.543378,137.948693 285.088152,137.255962 C283.620463,136.628106 282.004407,136.431004 280.428859,136.687692 C277.934549,137.244107 275.59355,138.343593 273.5725,139.907885 C275.315,137.142308 277.133261,134.490385 278.989402,131.914231 C280.834153,129.433314 282.900848,127.125462 285.163913,125.019231 C287.263145,123.052282 289.668415,121.440061 292.285435,120.245769 C295.130834,119.021092 298.203689,118.414201 301.300978,118.465192 C303.455931,118.393933 305.547502,119.200575 307.096685,120.700385 C308.990707,122.329423 310.884728,123.996346 312.74087,125.701154 C314.385492,127.303956 316.216906,128.703107 318.195652,129.868462 C320.049408,130.882894 322.322227,130.735292 324.029239,129.489615 C326.246356,127.651651 327.229864,124.71548 326.567228,121.912692 C326.067214,118.408119 324.771417,115.064592 322.779185,112.138462 C320.996577,109.282396 318.52073,106.923566 315.581902,105.281346 C312.877818,103.767938 309.487593,104.317341 307.399728,106.607308 C305.737385,108.151586 303.846274,109.429505 301.793424,110.395769 C299.906682,111.272372 297.850831,111.724968 295.770435,111.721731 C293.027187,111.600571 290.385343,110.649402 288.194348,108.994038 C285.521561,107.15316 283.167254,104.888169 281.224348,102.288462 C279.085192,99.43797 277.410381,96.2669853 276.262011,92.8930769 C275.065743,89.6836121 274.828836,86.1954227 275.580163,82.8536538 C276.417507,80.5852788 277.706163,78.5103133 279.368207,76.7542308 C281.548299,74.193959 283.929739,71.812256 286.489728,69.6319231 C289.343965,67.0649324 292.341321,64.6617229 295.467391,62.4338462 C298.762989,60.1228846 302.020707,58.0013462 305.202663,56.145 C308.038392,54.4425635 310.987334,52.9362853 314.028804,51.6367308 C316.060696,50.6637154 318.258773,50.0852102 320.506359,49.9319231 C322.869867,49.857699 325.217941,50.3377449 327.362717,51.3336538 C329.050905,52.1970385 330.617572,53.2798141 332.022011,54.5538462 C333.354723,55.7446299 334.619402,57.0094484 335.810054,58.3423077 C336.874368,59.5285244 338.161448,60.4939407 339.598098,61.1836538 C341.068072,61.8085217 342.694373,61.9672027 344.257391,61.6382692 C346.725037,61.0642476 349.055057,60.0085419 351.11375,58.5317308 C349.37125,61.1836538 347.552989,63.7219231 345.696848,66.1086538 C343.896534,68.5101269 341.880482,70.7419779 339.673859,72.7763462 C337.579319,74.7000502 335.170611,76.2505071 332.552337,77.3603846 C329.696132,78.541909 326.627156,79.1222417 323.536793,79.0651923 C321.40491,79.0111253 319.357308,78.2214399 317.741087,76.83 C315.847065,75.3146154 313.953043,73.7613462 312.096902,72.1323077 C310.390707,70.6441262 308.50777,69.371731 306.490598,68.3438462 C304.697605,67.394684 302.527479,67.5112136 300.846413,68.6469231 C298.691253,70.3577389 297.791712,73.2065971 298.573587,75.845 C299.19989,79.1033695 300.489257,82.1981915 302.36163,84.9373077 C304.143489,87.6146534 306.531423,89.8341194 309.33163,91.4155769 C311.456593,92.9231593 314.380343,92.5617572 316.074348,90.5821154 C317.982263,88.8836479 320.050074,87.3738524 322.248859,86.0738462 C324.198575,84.9173954 326.421731,84.3026901 328.688533,84.2932692 L328.688533,84.2932692 Z" id="Path"></path>
                <path d="M352.89413,27.9967308 L372.402554,11.3653846 C380.887772,18.9423077 384.852591,26.9233333 384.297011,35.3084615 C383.728804,43.7188462 378.349783,51.7125 368.084185,59.2136538 C367.659507,52.3350696 366.269571,45.5504095 363.955217,39.0590385 C362.147582,33.8777721 358.074825,29.8045654 352.89413,27.9967308 L352.89413,27.9967308 Z" id="Path"></path>
                <path d="M476.157065,118.995577 C476.800412,121.619578 477.740872,124.161643 478.960217,126.5725 C480.210272,129.072885 481.460326,131.649038 482.748261,134.149423 C484.021992,136.829172 485.122778,139.587768 486.043859,142.408269 C486.997629,145.499906 487.470346,148.719845 487.445435,151.955192 C487.081697,156.351856 485.479292,160.555349 482.824022,164.078269 C479.47219,169.090957 475.501255,173.660581 471.005326,177.678846 C466.170412,182.13489 460.785602,185.954326 454.981902,189.044231 C445.985185,194.090269 435.337234,195.305361 425.435163,192.415962 C421.64712,191.317308 417.859076,190.067115 414.071033,188.6275 C410.282989,187.187885 406.494946,186.127115 402.706902,185.066346 C398.620274,183.983225 394.391233,183.535997 390.168478,183.740385 C385.367104,183.949442 380.638082,184.987635 376.190598,186.809038 C370.326932,189.256655 364.832138,192.507994 359.86413,196.469615 C361.150951,191.262087 363.138897,186.253442 365.773478,181.580962 C368.404525,176.805649 371.751579,172.461664 375.698152,168.700192 C379.60648,164.978904 384.114329,161.943455 389.032065,159.721538 C394.000513,157.45459 399.405202,156.303704 404.866087,156.349808 C408.727632,156.249895 412.576013,156.840045 416.230217,158.0925 C420.35057,159.453661 424.385742,161.060318 428.314076,162.903846 C432.291522,164.760192 436.231087,166.692308 440.132772,168.700192 C443.58465,170.531243 447.13861,172.162957 450.777174,173.587308 C453.639066,174.729236 456.649407,175.456391 459.716957,175.746731 C462.12977,176.022413 464.519941,175.069085 466.08087,173.208462 C467.900123,170.929596 468.362445,167.851928 467.293043,165.139038 C466.041348,162.221554 464.369526,159.502947 462.330707,157.069615 L455.284946,148.469808 C452.908714,145.560165 451.213222,142.155862 450.322609,138.506154 L434.75375,148.621346 C430.562069,148.788296 426.405966,147.79177 422.745652,145.742115 C419.614676,143.905061 417.006417,141.296514 415.169565,138.165192 C413.250203,134.695774 411.967291,130.910765 411.381522,126.989231 C410.681932,122.515288 410.339926,117.992705 410.35875,113.464423 L410.35875,79.5576923 L448.996793,50.0834615 C452.064094,50.0887594 455.122901,50.406098 458.125978,51.0305769 C460.990692,51.6671052 463.906355,52.047451 466.838478,52.1671154 C469.800287,52.2789072 472.756488,51.8290009 475.550978,50.8411538 C479.148379,49.4735963 482.350251,47.2346424 484.869565,44.325 L492.445652,58.1907692 C489.274442,60.3730778 485.768719,62.0237644 482.066413,63.0778846 C478.923806,63.9410896 475.645644,64.1982288 472.406902,63.8355769 C473.82902,66.6599274 474.80041,69.6894666 475.285815,72.8142308 C475.882205,76.4838872 476.173618,80.1966464 476.157065,83.9144231 L476.157065,118.995577 Z M435.056793,113.350769 C435.251038,117.652536 437.080213,121.717818 440.170652,124.716154 C443.421711,127.731155 447.426458,129.812282 451.762065,130.739808 L451.762065,83.9144231 C451.902257,79.3671166 450.177955,74.9600813 446.98913,71.7155769 C443.773287,68.4697369 439.631443,66.2993299 435.132554,65.5025 L435.056793,113.350769 Z" id="Shape"></path>
                <path d="M563.016902,119.753269 C563.016902,121.230769 561.615326,123.238654 558.887935,125.739038 C555.597793,128.633066 552.11764,131.303587 548.470815,133.732692 C544.266087,136.536154 539.682554,139.301731 534.682337,141.991538 C530.041621,144.507083 525.275063,146.783144 520.401413,148.810769 C517.035744,148.848248 513.685576,148.349503 510.476739,147.333269 C507.519816,146.299104 504.900609,144.478555 502.900652,142.067308 C500.501925,139.000954 498.807705,135.443993 497.938315,131.649038 C496.612462,126.092581 496.013994,120.387403 496.157935,114.676731 L496.157935,79.0273077 C496.157935,77.6634615 497.52163,75.7313462 500.249022,73.3067308 C503.546567,70.4797341 507.02645,67.8726976 510.666141,65.5025 C514.87087,62.7748077 519.454402,60.0092308 524.45462,57.2815385 C529.454837,54.5538462 534.227772,52.0913462 538.735543,49.9310331 C542.103246,49.9066889 545.453461,50.4182287 548.660217,51.4473077 C551.643666,52.4680841 554.272586,54.3216766 556.236304,56.7890385 C558.613184,59.8738743 560.316602,63.4230541 561.236522,67.2073077 C562.546349,72.7407946 563.144643,78.4188501 563.016902,84.1038462 L563.016902,119.753269 Z M520.401413,114.676731 C520.341536,116.954674 520.863013,119.21031 521.91663,121.230769 C522.899557,123.100656 524.268159,124.740578 525.931957,126.042115 C527.714451,127.376214 529.67896,128.447883 531.765543,129.224423 C533.989089,130.034947 536.28497,130.631181 538.621902,131.005 L538.621902,84.1038462 C538.659367,81.8161037 538.139318,79.5536388 537.106685,77.5119231 C536.113727,75.6594953 534.746318,74.0339055 533.091359,72.7384615 C531.327103,71.3761935 529.358162,70.3021071 527.257772,69.5561538 C525.039684,68.7282122 522.742049,68.1315229 520.401413,67.7755769 L520.401413,114.676731 Z" id="Shape"></path>
                <path d="M606.42788,126.875577 C610.215924,129.262308 615.97375,128.428846 623.208913,124.450962 C619.478577,131.45761 614.452575,137.692598 608.397663,142.825 C603.365834,146.797579 597.117414,148.911839 590.7075,148.810769 C587.565135,149.014411 584.487261,147.854905 582.260163,145.628462 C580.210791,143.28355 578.732667,140.495552 577.941793,137.483269 C576.942138,133.774448 576.395205,129.958212 576.312935,126.117885 C576.312935,121.912692 576.312935,117.745385 576.312935,113.615962 L576.312935,41.2942308 C575.849767,31.895633 577.134184,22.4926643 580.100978,13.5626923 C582.452945,7.32667203 588.602797,3.35957973 595.253152,3.78846154 L614.19337,24.625 C610.471045,24.4183954 606.819163,25.6994208 604.041413,28.1861538 C601.541304,30.5728846 600.25337,34.9296154 600.25337,41.2942308 L600.25337,113.653846 C599.68344,118.868092 602.06409,123.965873 606.42788,126.875577 L606.42788,126.875577 Z" id="Path"></path>
                <path d="M656.240652,3.78846154 C653.349738,7.74576371 652.002743,12.6224209 652.452609,17.5026923 C653.108833,21.5486745 654.864835,25.3362927 657.528587,28.4513462 C660.475513,32.0764668 663.933507,35.2540886 667.794185,37.8846154 C671.961033,40.7638462 676.014239,43.6430769 679.878043,46.5223077 C683.462084,49.1534614 686.79694,52.1082415 689.840598,55.3494231 C692.435336,58.0204907 693.900623,61.5891287 693.931685,65.3130769 L693.931685,116.002692 L656.430054,148.810769 C652.308306,148.879614 648.198744,148.343525 644.232554,147.219615 C640.847076,146.23318 637.820539,144.285454 635.520054,141.612692 C632.897443,138.303722 631.128297,134.400763 630.368315,130.247308 C629.103404,124.207372 628.531501,118.042847 628.663696,111.873269 L628.663696,77.7771154 L648.740326,56.4101923 C646.214964,54.5159615 643.689601,52.5459615 641.164239,50.5001923 C638.653312,48.4183613 636.390796,46.0538983 634.421522,43.4536538 C631.387398,39.7362606 629.692801,35.1056305 629.610707,30.3076923 C629.577055,25.9130745 630.770913,21.5963424 633.057826,17.8436538 C635.475564,13.9103981 638.784515,10.6010812 642.717337,8.18307692 C646.792928,5.62348793 651.439113,4.11363636 656.240652,3.78846154 Z M669.574565,116.002692 L669.574565,81.4519231 C669.190713,76.6721376 667.353293,72.124353 664.309185,68.4196154 C661.138766,64.7383131 657.278039,61.713743 652.945054,59.5167308 L652.945054,112.062692 C652.425423,117.147245 654.139419,122.206854 657.642228,125.928462 C660.917426,128.750967 665.140827,130.226613 669.460924,130.057885 L669.574565,116.002692 Z" id="Shape"></path>
            </g>
        </g>
    </g>
</svg>