<?xml version="1.0" encoding="UTF-8"?>
<svg viewBox="0 0 1440 100" version="1.1" xmlns="http://www.w3.org/2000/svg" xmlns:xlink="http://www.w3.org/1999/xlink">
    <g id="Designs" stroke="none" stroke-width="1" fill="none" fill-rule="evenodd">
        <g id="Desktop---Homepage-----final" transform="translate(0.000000, -7354.000000)" fill="#D00017">
            <g id="background" transform="translate(717.500000, 7263.500000) rotate(-270.000000) translate(-717.500000, -7263.500000) translate(527.000000, 6538.000000)">
                <g id="color-swatches" transform="translate(95.500000, -28.000000)">
                    <path d="M188.886727,30.7112937 L278.482641,30.7112937 C282.215804,-52.7948791 284.082386,36.3409234 284.082386,298.118701 C284.082386,520.899009 302.5,825.665963 302.5,1236 C302.5,1283.88571 296.360795,1362.51787 284.082386,1471.89648 L203.5,1471.89648 L188.886727,1471.89648 C195.351555,1125.8045 198.222646,873.83901 197.5,716 C196.955597,597.092522 186.176503,533.18245 186.397951,412.118701 C186.532538,338.541785 186.713167,229.015627 186.397951,155.970553 C186.397951,96.2836213 187.227543,54.5305349 188.886727,30.7112937 Z" id="Rectangle-Copy-3"></path>
                </g>
            </g>
        </g>
    </g>
</svg>