<?xml version="1.0" encoding="UTF-8"?>
<svg width="32px" height="45px" viewBox="0 0 32 45" version="1.1" xmlns="http://www.w3.org/2000/svg" xmlns:xlink="http://www.w3.org/1999/xlink">
    <!-- Generator: Sketch 59.1 (86144) - https://sketch.com -->
    <title>FG_Secondary_Logo_Lockup</title>
    <desc>Created with Sketch.</desc>
    <g id="Designs" stroke="none" stroke-width="1" fill="none" fill-rule="evenodd">
        <g id="Desktop---Homepage-----final" transform="translate(-27.000000, -20.000000)" fill="#FAF7ED" fill-rule="nonzero">
            <g id="FG_Secondary_Logo_Lockup" transform="translate(27.000000, 20.000000)">
                <path d="M30.03,13.2857143 L31.5728571,16.14 C30.4134673,17.0233792 28.983796,17.4777239 27.5271429,17.4257143 C28.6028571,20.6228571 28.17,23.8542857 28.1914286,27.0085714 C28.1833791,28.4924719 28.5239517,29.9575216 29.1857143,31.2857143 C29.7604414,32.4067005 30.170381,33.6047634 30.4028571,34.8428571 C30.5537322,35.7405093 30.4125214,36.6628865 30,37.4742857 C27.9985714,41.0014286 25.0971429,43.4742857 21.0514286,44.3957143 C19.4785714,44.7514286 17.9742857,44.31 16.4871429,43.8514286 C15.63,43.5814286 14.7471429,43.2728571 13.8814286,42.9942857 C10.7357143,41.8971429 7.83428571,42.45 5.12142857,44.28 L4.26428571,44.8585714 C4.20857143,44.7771429 4.14857143,44.73 4.15714286,44.6871429 C4.88142857,40.3414286 9.42857143,36.5485714 13.7657143,36.7114286 C15.7157143,36.7842857 17.4042857,37.7057143 19.1314286,38.4857143 C20.5714286,39.1328571 21.99,39.8571429 23.4557143,40.4228571 C24.3728571,40.7828571 25.4271429,41.0785714 26.1514286,40.0842857 C26.8757143,39.09 26.3142857,38.1428571 25.7142857,37.3114286 L22.6328571,33.1242857 C22.0842857,33.48 21.3985714,33.9128571 20.7128571,34.3542857 C19.3242857,35.2542857 17.8457143,35.2671429 16.68,34.0842857 C15.9524385,33.3084828 15.4012682,32.384505 15.0642857,31.3757143 C14.7680119,30.3758099 14.6235444,29.3370891 14.6357143,28.2942857 C14.5757143,25.98 14.5842857,23.6657143 14.6357143,21.3557143 C14.6754561,20.8873835 14.8951175,20.452669 15.2485714,20.1428571 C17.46,18.3942857 19.7014286,16.68 21.9728571,15 C22.4450857,14.7311354 22.9767382,14.5838633 23.52,14.5714286 C23.9647357,14.5613593 24.4084066,14.6191665 24.8357143,14.7428571 C26.7428571,15.1242857 28.5,14.9442857 30.03,13.2857143 Z M19.6242857,17.88 C19.6242857,21.2571429 19.5471429,24.5785714 19.6542857,27.8957143 C19.8029169,29.7160307 21.3165359,31.1217997 23.1428571,31.1357143 C23.1428571,27.8828571 23.22,24.6257143 23.1171429,21.3728571 C23.0442857,19.4185714 21.57,18.03 19.6242857,17.88 Z" id="Shape"></path>
                <path d="M2.7,31.1957143 C3.98571429,30.7157143 4.41428571,29.7257143 4.41428571,28.4871429 C4.41428571,25.4871429 4.41428571,22.4871429 4.44,19.4571429 C4.44,18.8614286 4.20857143,18.69 3.64714286,18.7071429 C2.64428571,18.7371429 1.63714286,18.7071429 0.411428571,18.7071429 C0.84,18.1028571 1.13571429,17.6442857 1.46142857,17.2071429 C2.36142857,16.02 3.30857143,14.8714286 4.14857143,13.6414286 C4.38723362,13.20943 4.47898748,12.7115525 4.41,12.2228571 C4.24137482,11.1039444 4.74459628,9.99014755 5.69571429,9.37714286 C7.98857143,7.68428571 10.2342857,5.94857143 12.5528571,4.29857143 C12.9814286,4.00285714 13.7742857,4.06285714 14.3357143,4.20857143 C15.2503397,4.46213243 16.1342439,4.81569411 16.9714286,5.26285714 C19.2,6.40714286 21.2571429,6.04285714 23.22,4.66285714 C23.4471429,4.5 23.6785714,4.34571429 23.94,4.17 C24.1071429,7.03714286 21.75,10.9114286 18.0342857,11.1428571 C15.8914286,11.28 13.9971429,10.6157143 12.1928571,9.52714286 C11.3957143,9.04285714 10.5471429,8.64428571 9.48428571,8.07857143 C9.48428571,9.98571429 9.48428571,11.6142857 9.51857143,13.2214286 C9.51857143,13.3542857 9.98571429,13.5685714 10.2385714,13.5728571 C11.8885714,13.6071429 13.5342857,13.5728571 15.1842857,13.5728571 L16.4314286,13.5728571 C16.1357143,14.0014286 15.9471429,14.3185714 15.7457143,14.6142857 C15.5442857,14.91 15.4114286,15.0771429 15.2442857,15.3042857 C14.5157143,16.3028571 13.9585714,17.5885714 13.0071429,18.2185714 C12.12,18.7971429 10.77,18.6771429 9.47142857,18.8871429 L9.47142857,19.7828571 C9.47142857,22.5385714 9.53142857,25.2985714 9.44571429,28.0542857 C9.38041923,29.3449232 9.19242867,30.6264161 8.88428571,31.8814286 C8.64564443,32.8237849 7.96518664,33.5920952 7.05857143,33.9428571 C5.77285714,34.5085714 5.28,34.3971429 4.37142857,33.3257143 L2.83714286,31.47 C2.78493674,31.381964 2.73910513,31.2903008 2.7,31.1957143 Z" id="Path"></path>
                <path d="M30.6,0 C30.69,0.265714286 31.9885714,4.22571429 29.3914286,7.47428571 C28.000374,9.14524769 25.9886371,10.1774235 23.82,10.3328571 C25.1339223,9.25749658 26.0670325,7.78796068 26.4814286,6.14142857 C26.7642331,4.9763085 26.77157,3.76130763 26.5028571,2.59285714 L30.6,0 Z" id="Path"></path>
            </g>
        </g>
    </g>
</svg>